<mxfile host="app.diagrams.net" modified="2023-10-21T12:15:05.225Z" agent="Mozilla/5.0 (Windows NT 10.0; Win64; x64) AppleWebKit/537.36 (KHTML, like Gecko) Chrome/118.0.0.0 Safari/537.36" etag="NY82WWfY3LMLSQqXvunR" version="22.0.6" type="device">
  <diagram name="Page-1" id="dmp6D1WtD1IJ-CD5K-uT">
    <mxGraphModel dx="875" dy="445" grid="1" gridSize="10" guides="1" tooltips="1" connect="1" arrows="1" fold="1" page="1" pageScale="1" pageWidth="850" pageHeight="1100" math="0" shadow="0">
      <root>
        <mxCell id="0" />
        <mxCell id="1" parent="0" />
        <mxCell id="QWW1t87sb8K7O7vCiJtj-22" value="" style="rounded=0;whiteSpace=wrap;html=1;imageHeight=29;" vertex="1" parent="1">
          <mxGeometry x="211.32" y="340" width="440" height="106" as="geometry" />
        </mxCell>
        <mxCell id="QWW1t87sb8K7O7vCiJtj-23" value="" style="endArrow=none;dashed=1;html=1;rounded=0;exitX=-0.003;exitY=0.634;exitDx=0;exitDy=0;exitPerimeter=0;" edge="1" parent="1">
          <mxGeometry width="50" height="50" relative="1" as="geometry">
            <mxPoint x="210.00000000000006" y="401.4200000000001" as="sourcePoint" />
            <mxPoint x="651.32" y="398" as="targetPoint" />
          </mxGeometry>
        </mxCell>
        <mxCell id="QWW1t87sb8K7O7vCiJtj-24" value="" style="verticalLabelPosition=bottom;verticalAlign=top;html=1;shape=card;whiteSpace=wrap;size=20;arcSize=12;rotation=-180;" vertex="1" parent="1">
          <mxGeometry x="211.32" y="340" width="80" height="30" as="geometry" />
        </mxCell>
        <mxCell id="QWW1t87sb8K7O7vCiJtj-25" value="&lt;b&gt;ALT&lt;/b&gt;" style="text;strokeColor=none;align=center;fillColor=none;html=1;verticalAlign=middle;whiteSpace=wrap;rounded=0;" vertex="1" parent="1">
          <mxGeometry x="211.32" y="340" width="60" height="30" as="geometry" />
        </mxCell>
        <mxCell id="QWW1t87sb8K7O7vCiJtj-26" value="ReviewNotAdded" style="text;strokeColor=none;align=center;fillColor=none;html=1;verticalAlign=middle;whiteSpace=wrap;rounded=0;" vertex="1" parent="1">
          <mxGeometry x="219.32" y="371" width="108" height="30" as="geometry" />
        </mxCell>
        <mxCell id="QWW1t87sb8K7O7vCiJtj-27" value="ReviewAdded" style="text;strokeColor=none;align=center;fillColor=none;html=1;verticalAlign=middle;whiteSpace=wrap;rounded=0;" vertex="1" parent="1">
          <mxGeometry x="219.32" y="411" width="108" height="30" as="geometry" />
        </mxCell>
        <mxCell id="QWW1t87sb8K7O7vCiJtj-1" value="" style="endArrow=none;dashed=1;html=1;rounded=0;exitX=0.5;exitY=0;exitDx=0;exitDy=0;" edge="1" parent="1" source="QWW1t87sb8K7O7vCiJtj-18">
          <mxGeometry width="50" height="50" relative="1" as="geometry">
            <mxPoint x="345" y="420" as="sourcePoint" />
            <mxPoint x="345" y="140" as="targetPoint" />
          </mxGeometry>
        </mxCell>
        <mxCell id="QWW1t87sb8K7O7vCiJtj-2" value="" style="rounded=0;whiteSpace=wrap;html=1;imageHeight=29;" vertex="1" parent="1">
          <mxGeometry x="210" y="224" width="440" height="106" as="geometry" />
        </mxCell>
        <mxCell id="QWW1t87sb8K7O7vCiJtj-3" value=":System" style="shape=umlLifeline;perimeter=lifelinePerimeter;whiteSpace=wrap;html=1;container=0;dropTarget=0;collapsible=0;recursiveResize=0;outlineConnect=0;portConstraint=eastwest;newEdgeStyle={&quot;edgeStyle&quot;:&quot;elbowEdgeStyle&quot;,&quot;elbow&quot;:&quot;vertical&quot;,&quot;curved&quot;:0,&quot;rounded&quot;:0};" vertex="1" parent="1">
          <mxGeometry x="550" y="88" width="100" height="422" as="geometry" />
        </mxCell>
        <mxCell id="QWW1t87sb8K7O7vCiJtj-4" value="" style="html=1;points=[];perimeter=orthogonalPerimeter;outlineConnect=0;targetShapes=umlLifeline;portConstraint=eastwest;newEdgeStyle={&quot;edgeStyle&quot;:&quot;elbowEdgeStyle&quot;,&quot;elbow&quot;:&quot;vertical&quot;,&quot;curved&quot;:0,&quot;rounded&quot;:0};" vertex="1" parent="QWW1t87sb8K7O7vCiJtj-3">
          <mxGeometry x="45" y="80" width="10" height="320" as="geometry" />
        </mxCell>
        <mxCell id="QWW1t87sb8K7O7vCiJtj-5" value="User" style="shape=umlActor;verticalLabelPosition=bottom;verticalAlign=top;html=1;outlineConnect=0;" vertex="1" parent="1">
          <mxGeometry x="335" y="69" width="20" height="50" as="geometry" />
        </mxCell>
        <mxCell id="QWW1t87sb8K7O7vCiJtj-6" value="" style="html=1;points=[];perimeter=orthogonalPerimeter;outlineConnect=0;targetShapes=umlLifeline;portConstraint=eastwest;newEdgeStyle={&quot;edgeStyle&quot;:&quot;elbowEdgeStyle&quot;,&quot;elbow&quot;:&quot;vertical&quot;,&quot;curved&quot;:0,&quot;rounded&quot;:0};" vertex="1" parent="1">
          <mxGeometry x="340" y="171" width="10" height="319" as="geometry" />
        </mxCell>
        <mxCell id="QWW1t87sb8K7O7vCiJtj-7" value="" style="endArrow=classic;html=1;rounded=0;" edge="1" parent="1" target="QWW1t87sb8K7O7vCiJtj-4">
          <mxGeometry width="50" height="50" relative="1" as="geometry">
            <mxPoint x="350" y="210" as="sourcePoint" />
            <mxPoint x="510" y="210" as="targetPoint" />
          </mxGeometry>
        </mxCell>
        <mxCell id="QWW1t87sb8K7O7vCiJtj-8" value="" style="html=1;labelBackgroundColor=#ffffff;startArrow=none;startFill=0;startSize=6;endArrow=classic;endFill=1;endSize=6;jettySize=auto;orthogonalLoop=1;strokeWidth=1;dashed=1;fontSize=14;rounded=0;" edge="1" parent="1">
          <mxGeometry width="60" height="60" relative="1" as="geometry">
            <mxPoint x="595" y="270" as="sourcePoint" />
            <mxPoint x="350" y="270" as="targetPoint" />
          </mxGeometry>
        </mxCell>
        <mxCell id="QWW1t87sb8K7O7vCiJtj-9" value="RateAndReview(star_rating, feedback)" style="text;strokeColor=none;align=center;fillColor=none;html=1;verticalAlign=middle;whiteSpace=wrap;rounded=0;" vertex="1" parent="1">
          <mxGeometry x="357" y="178" width="240" height="30" as="geometry" />
        </mxCell>
        <mxCell id="QWW1t87sb8K7O7vCiJtj-10" value="Order Not Delivered" style="text;strokeColor=none;align=center;fillColor=none;html=1;verticalAlign=middle;whiteSpace=wrap;rounded=0;" vertex="1" parent="1">
          <mxGeometry x="396" y="242.5" width="150" height="30" as="geometry" />
        </mxCell>
        <mxCell id="QWW1t87sb8K7O7vCiJtj-11" value="" style="endArrow=none;dashed=1;html=1;rounded=0;exitX=-0.003;exitY=0.634;exitDx=0;exitDy=0;exitPerimeter=0;" edge="1" parent="1">
          <mxGeometry width="50" height="50" relative="1" as="geometry">
            <mxPoint x="208.68000000000006" y="285.4200000000001" as="sourcePoint" />
            <mxPoint x="650" y="282" as="targetPoint" />
          </mxGeometry>
        </mxCell>
        <mxCell id="QWW1t87sb8K7O7vCiJtj-12" value="" style="verticalLabelPosition=bottom;verticalAlign=top;html=1;shape=card;whiteSpace=wrap;size=20;arcSize=12;rotation=-180;" vertex="1" parent="1">
          <mxGeometry x="210" y="224" width="80" height="30" as="geometry" />
        </mxCell>
        <mxCell id="QWW1t87sb8K7O7vCiJtj-13" value="&lt;b&gt;ALT&lt;/b&gt;" style="text;strokeColor=none;align=center;fillColor=none;html=1;verticalAlign=middle;whiteSpace=wrap;rounded=0;" vertex="1" parent="1">
          <mxGeometry x="210" y="224" width="60" height="30" as="geometry" />
        </mxCell>
        <mxCell id="QWW1t87sb8K7O7vCiJtj-14" value="OrderNotDelivered" style="text;strokeColor=none;align=center;fillColor=none;html=1;verticalAlign=middle;whiteSpace=wrap;rounded=0;" vertex="1" parent="1">
          <mxGeometry x="218" y="255" width="108" height="30" as="geometry" />
        </mxCell>
        <mxCell id="QWW1t87sb8K7O7vCiJtj-15" value="" style="html=1;labelBackgroundColor=#ffffff;startArrow=none;startFill=0;startSize=6;endArrow=classic;endFill=1;endSize=6;jettySize=auto;orthogonalLoop=1;strokeWidth=1;dashed=1;fontSize=14;rounded=0;" edge="1" parent="1">
          <mxGeometry width="60" height="60" relative="1" as="geometry">
            <mxPoint x="593.5" y="381.5" as="sourcePoint" />
            <mxPoint x="348.5" y="381.5" as="targetPoint" />
          </mxGeometry>
        </mxCell>
        <mxCell id="QWW1t87sb8K7O7vCiJtj-16" value="Review Not Added" style="text;strokeColor=none;align=center;fillColor=none;html=1;verticalAlign=middle;whiteSpace=wrap;rounded=0;" vertex="1" parent="1">
          <mxGeometry x="403.75" y="354" width="132.5" height="30" as="geometry" />
        </mxCell>
        <mxCell id="QWW1t87sb8K7O7vCiJtj-17" value="OrderDelivered" style="text;strokeColor=none;align=center;fillColor=none;html=1;verticalAlign=middle;whiteSpace=wrap;rounded=0;" vertex="1" parent="1">
          <mxGeometry x="218" y="295" width="108" height="30" as="geometry" />
        </mxCell>
        <mxCell id="QWW1t87sb8K7O7vCiJtj-18" value="&lt;font style=&quot;font-size: 30px;&quot;&gt;X&lt;/font&gt;" style="text;strokeColor=none;align=center;fillColor=none;html=1;verticalAlign=middle;whiteSpace=wrap;rounded=0;" vertex="1" parent="1">
          <mxGeometry x="332" y="504.01" width="27" height="10" as="geometry" />
        </mxCell>
        <mxCell id="QWW1t87sb8K7O7vCiJtj-19" value="&lt;font style=&quot;font-size: 30px;&quot;&gt;X&lt;/font&gt;" style="text;strokeColor=none;align=center;fillColor=none;html=1;verticalAlign=middle;whiteSpace=wrap;rounded=0;" vertex="1" parent="1">
          <mxGeometry x="587" y="504.28999999999996" width="27" height="10" as="geometry" />
        </mxCell>
        <mxCell id="QWW1t87sb8K7O7vCiJtj-20" value="RateAndReview(star_rating, feedback)" style="text;strokeColor=none;align=center;fillColor=none;html=1;verticalAlign=middle;whiteSpace=wrap;rounded=0;" vertex="1" parent="1">
          <mxGeometry x="396" y="291" width="150" height="30" as="geometry" />
        </mxCell>
        <mxCell id="QWW1t87sb8K7O7vCiJtj-21" value="" style="endArrow=classic;html=1;rounded=0;" edge="1" parent="1">
          <mxGeometry width="50" height="50" relative="1" as="geometry">
            <mxPoint x="350" y="318.5" as="sourcePoint" />
            <mxPoint x="595" y="318.5" as="targetPoint" />
          </mxGeometry>
        </mxCell>
        <mxCell id="QWW1t87sb8K7O7vCiJtj-28" value="DisplayReview()" style="text;strokeColor=none;align=center;fillColor=none;html=1;verticalAlign=middle;whiteSpace=wrap;rounded=0;" vertex="1" parent="1">
          <mxGeometry x="396" y="406" width="150" height="30" as="geometry" />
        </mxCell>
        <mxCell id="QWW1t87sb8K7O7vCiJtj-29" value="" style="endArrow=classic;html=1;rounded=0;" edge="1" parent="1">
          <mxGeometry width="50" height="50" relative="1" as="geometry">
            <mxPoint x="350" y="433.5" as="sourcePoint" />
            <mxPoint x="595" y="433.5" as="targetPoint" />
          </mxGeometry>
        </mxCell>
        <mxCell id="QWW1t87sb8K7O7vCiJtj-30" value="" style="html=1;labelBackgroundColor=#ffffff;startArrow=none;startFill=0;startSize=6;endArrow=classic;endFill=1;endSize=6;jettySize=auto;orthogonalLoop=1;strokeWidth=1;dashed=1;fontSize=14;rounded=0;" edge="1" parent="1">
          <mxGeometry width="60" height="60" relative="1" as="geometry">
            <mxPoint x="592.5" y="473.5" as="sourcePoint" />
            <mxPoint x="347.5" y="473.5" as="targetPoint" />
          </mxGeometry>
        </mxCell>
        <mxCell id="QWW1t87sb8K7O7vCiJtj-31" value="Review Added" style="text;strokeColor=none;align=center;fillColor=none;html=1;verticalAlign=middle;whiteSpace=wrap;rounded=0;" vertex="1" parent="1">
          <mxGeometry x="402.75" y="446" width="132.5" height="30" as="geometry" />
        </mxCell>
      </root>
    </mxGraphModel>
  </diagram>
</mxfile>
